<?xml version="1.0" encoding="UTF-8" standalone="no"?>
<svg
   xmlns:dc="http://purl.org/dc/elements/1.1/"
   xmlns:cc="http://creativecommons.org/ns#"
   xmlns:rdf="http://www.w3.org/1999/02/22-rdf-syntax-ns#"
   xmlns:svg="http://www.w3.org/2000/svg"
   xmlns="http://www.w3.org/2000/svg"
   xmlns:xlink="http://www.w3.org/1999/xlink"
   xmlns:sodipodi="http://sodipodi.sourceforge.net/DTD/sodipodi-0.dtd"
   xmlns:inkscape="http://www.inkscape.org/namespaces/inkscape"
   width="1000"
   height="154.813"
   viewBox="0 0 1000 154.81299"
   version="1.1"
   id="svg41344"
   sodipodi:docname="A.svg"
   inkscape:version="0.92.4 (5da689c313, 2019-01-14)">
  <metadata
     id="metadata41350">
    <rdf:RDF>
      <cc:Work
         rdf:about="">
        <dc:format>image/svg+xml</dc:format>
        <dc:type
           rdf:resource="http://purl.org/dc/dcmitype/StillImage" />
        <dc:title></dc:title>
      </cc:Work>
    </rdf:RDF>
  </metadata>
  <defs
     id="defs41348">
    <linearGradient
       inkscape:collect="always"
       id="linearGradient45974">
      <stop
         style="stop-color:#b5000b;stop-opacity:1"
         offset="0"
         id="stop45970" />
      <stop
         id="stop45978"
         offset="0.2"
         style="stop-color:#cc0011;stop-opacity:1" />
      <stop
         style="stop-color:#e60017;stop-opacity:1"
         offset="0.40000001"
         id="stop45980" />
      <stop
         id="stop45982"
         offset="0.60000002"
         style="stop-color:#fe001c;stop-opacity:1" />
      <stop
         style="stop-color:#fe001c;stop-opacity:1"
         offset="0.80000001"
         id="stop45984" />
      <stop
         style="stop-color:#fe001c;stop-opacity:1"
         offset="1"
         id="stop45972" />
    </linearGradient>
    <clipPath
       clipPathUnits="userSpaceOnUse"
       id="clipPath42098">
      <path
         d="M 0,0 H 1405.984 V 841.89 H 0 Z"
         id="path42096"
         inkscape:connector-curvature="0" />
    </clipPath>
    <linearGradient
       inkscape:collect="always"
       xlink:href="#linearGradient45974"
       id="linearGradient45976"
       x1="-64.933975"
       y1="689.19647"
       x2="-64.933975"
       y2="627.15686"
       gradientUnits="userSpaceOnUse"
       gradientTransform="matrix(1.2699295,0,0,1.2699295,85.085274,-724.1646)" />
  </defs>
  <sodipodi:namedview
     pagecolor="#ffffff"
     bordercolor="#111111"
     borderopacity="1"
     objecttolerance="10"
     gridtolerance="10"
     guidetolerance="10"
     inkscape:pageopacity="0"
     inkscape:pageshadow="2"
     inkscape:window-width="1920"
     inkscape:window-height="1017"
     id="namedview41346"
     showgrid="false"
     fit-margin-top="0"
     fit-margin-left="0"
     fit-margin-right="0"
     fit-margin-bottom="0"
     inkscape:zoom="0.49665834"
     inkscape:cx="748.37961"
     inkscape:cy="-262.20918"
     inkscape:window-x="1912"
     inkscape:window-y="-8"
     inkscape:window-maximized="1"
     inkscape:current-layer="svg41344">
    <inkscape:grid
       type="xygrid"
       id="grid45951"
       originx="67"
       originy="523.93215" />
  </sodipodi:namedview>
  <path
     style="opacity:1;fill:url(#linearGradient45976);fill-opacity:1;stroke:none;stroke-width:0.12699294;stroke-linecap:square;stroke-linejoin:miter;stroke-miterlimit:4;stroke-dasharray:none;stroke-opacity:1"
     d="M 34.288096,151.08932 H 0 V 72.3537 l 34.288096,54.69306 z"
     id="path45953"
     inkscape:connector-curvature="0"
     sodipodi:nodetypes="ccccc" />
  <path
     style="opacity:1;fill:#294ea6;fill-opacity:1;stroke:none;stroke-width:0.12699294;stroke-linecap:square;stroke-linejoin:miter;stroke-miterlimit:4;stroke-dasharray:none;stroke-opacity:1"
     d="M 34.288096,111.4686 0,55.84461 V 3.77751 h 40.185734 l 59.503729,96.51463 V 3.77751 H 133.34259 V 151.08932 H 93.97478 L 34.288096,54.57468 Z"
     id="path45955"
     inkscape:connector-curvature="0"
     sodipodi:nodetypes="ccccccccccc" />
  <path
     style="opacity:1;fill:#294ea6;fill-opacity:1;stroke:none;stroke-width:0.12699294;stroke-linecap:square;stroke-linejoin:miter;stroke-miterlimit:4;stroke-dasharray:none;stroke-opacity:1"
     d="M 144.77196,151.08932 V 3.77751 h 99.0545 v 29.84334 h -64.76641 v 28.57341 h 60.95662 v 27.93845 h -60.95662 v 31.11327 h 68.5762 v 29.84334 z"
     id="path45957"
     inkscape:connector-curvature="0"
     sodipodi:nodetypes="ccccccccccccc" />
  <path
     style="opacity:1;fill:#294ea6;fill-opacity:1;stroke:none;stroke-width:0.12699294;stroke-linecap:square;stroke-linejoin:miter;stroke-miterlimit:4;stroke-dasharray:none;stroke-opacity:1"
     d="M 287.79456,151.08932 250.0962,3.77751 h 33.88858 l 22.07677,88.1131 19.04039,-88.1131 h 39.36782 l 21.90841,88.1131 19.99926,-88.1131 h 34.28809 l -37.61846,147.31181 h -35.55802 l -21.89987,-95.2618 -22.71602,95.2618 z"
     id="path45959"
     inkscape:connector-curvature="0"
     sodipodi:nodetypes="cccccccccccccc" />
  <path
     style="opacity:1;fill:#294ea6;fill-opacity:1;stroke:none;stroke-width:0.12699294;stroke-linecap:square;stroke-linejoin:miter;stroke-miterlimit:4;stroke-dasharray:none;stroke-opacity:1"
     d="m 455.62217,110.05607 -23.1755,23.73366 c 0,0 17.93113,21.02328 55.26544,21.02328 34.54467,0 56.16209,-19.63645 56.16209,-48.81694 0,-49.55023 -68.70534,-36.93568 -68.70534,-62.15121 0,-7.49394 6.50463,-14.69029 20.2274,-14.69029 14.65397,0 27.00751,12.54324 27.00751,12.54324 l 22.14844,-23.50446 c 0,0 -16.84797,-18.19335 -48.02593,-18.19335 -35.24457,0 -56.84011,20.19442 -56.84011,45.9919 0,52.02531 68.14032,36.2285 68.14032,63.62023 0,10.67013 -8.92468,16.27232 -20.11438,16.27232 -19.55005,0 -32.08994,-15.82838 -32.08994,-15.82838 z"
     id="path45961"
     inkscape:connector-curvature="0"
     sodipodi:nodetypes="ccccccccccccc" />
  <path
     style="opacity:1;fill:#294ea6;fill-opacity:1;stroke:none;stroke-width:0.12699294;stroke-linecap:square;stroke-linejoin:miter;stroke-miterlimit:4;stroke-dasharray:none;stroke-opacity:1"
     d="M 553.68925,151.08932 V 3.77751 h 49.99812 l 34.45645,95.72413 32.69001,-95.72413 h 50.48611 v 147.31181 h -34.2881 V 46.95511 L 648.93396,151.08932 H 624.01479 L 586.70741,45.83644 v 105.25288 z"
     id="path45963"
     inkscape:connector-curvature="0"
     sodipodi:nodetypes="cccccccccccccc" />
  <path
     style="opacity:1;fill:#294ea6;fill-opacity:1;stroke:none;stroke-width:0.12699294;stroke-linecap:square;stroke-linejoin:miter;stroke-miterlimit:4;stroke-dasharray:none;stroke-opacity:1"
     d="m 782.95368,3.77781 -61.63374,147.31182 h 38.09788 l 10.97794,-29.20838 h 57.14683 l 11.31527,29.20838 h 54.24236 l 31.01405,-51.75707 32.5097,51.75707 H 1000 L 946.91596,73.37093 993.67764,3.77781 H 952.4471 L 925.18578,49.58208 897.84013,3.77781 h -43.1776 L 902.35434,73.37093 867.83308,126.16975 817.28395,3.77781 Z m 16.42476,39.73242 19.04894,50.43257 h -38.09789 z"
     id="path45965"
     inkscape:connector-curvature="0" />
</svg>
