<svg width="22" height="19" viewBox="0 0 22 19" fill="#EE642A" xmlns="http://www.w3.org/2000/svg">
<path d="M13.0735 1.34356C13.1798 1.44715 13.6345 1.83828 14.0085 2.20263C16.3607 4.33869 20.2107 9.91102 21.3858 12.8276C21.5747 13.2705 21.9743 14.3903 22 14.9886C22 15.5619 21.868 16.1085 21.6003 16.63C21.2263 17.2801 20.6378 17.8016 19.943 18.0874C19.4608 18.2713 18.018 18.5571 17.9923 18.5571C16.4138 18.8428 13.849 19 11.0147 19C8.31417 19 5.85383 18.8428 4.2515 18.6089C4.22583 18.5821 2.43283 18.2963 1.81867 17.9838C0.696665 17.4105 2.36861e-07 16.2906 3.41629e-07 15.0922L3.50685e-07 14.9886C0.0275006 14.2081 0.724167 12.5668 0.749835 12.5668C1.92683 9.80743 5.588 4.36369 8.02083 2.17584C8.02083 2.17584 8.646 1.55967 9.0365 1.29177C9.5975 0.873841 10.2923 0.666665 10.9872 0.666665C11.7627 0.666665 12.485 0.900632 13.0735 1.34356Z" fill="#EE642A"/>
</svg>
