<svg width="14" height="13" viewBox="0 0 14 13" fill="none" xmlns="http://www.w3.org/2000/svg">
<path fill-rule="evenodd" clip-rule="evenodd" d="M6.6088 0.226562C3.01786 0.226562 0.128906 3.11552 0.128906 6.70646C0.128906 9.56841 1.99188 11.9984 4.55684 12.8624C4.88083 12.9164 4.98883 12.7274 4.98883 12.5384C4.98883 12.3764 4.98883 11.9714 4.98883 11.4314C3.17986 11.8364 2.80186 10.5674 2.80186 10.5674C2.50487 9.81141 2.07287 9.62241 2.07287 9.62241C1.47888 9.21742 2.12687 9.21742 2.12687 9.21742C2.77486 9.27142 3.12586 9.89241 3.12586 9.89241C3.69285 10.8914 4.63783 10.5944 5.01583 10.4324C5.06983 10.0004 5.23182 9.73041 5.42082 9.56841C3.98984 9.40642 2.47787 8.83942 2.47787 6.35546C2.47787 5.65347 2.72086 5.05948 3.15286 4.62749C3.09886 4.46549 2.85586 3.8175 3.20686 2.89952C3.20686 2.89952 3.74685 2.73752 4.98883 3.57451C5.50182 3.43951 6.06881 3.35851 6.6088 3.35851C7.14879 3.35851 7.71578 3.43951 8.22878 3.57451C9.47076 2.73752 10.0107 2.89952 10.0107 2.89952C10.3617 3.79051 10.1457 4.43849 10.0647 4.62749C10.4697 5.08648 10.7397 5.65347 10.7397 6.35546C10.7397 8.83942 9.22776 9.37942 7.76978 9.54141C8.01278 9.73041 8.20178 10.1354 8.20178 10.7294C8.20178 11.5934 8.20178 12.2954 8.20178 12.5114C8.20178 12.6734 8.30977 12.8894 8.66077 12.8354C11.2257 11.9984 13.0887 9.56841 13.0887 6.70646C13.0887 3.11552 10.1997 0.226562 6.6088 0.226562Z" fill="white"/>
</svg>
