<svg xmlns="http://www.w3.org/2000/svg" version="1.1" xmlns:xlink="http://www.w3.org/1999/xlink" xmlns:svgjs="http://svgjs.dev/svgjs" width="1440" height="560" preserveAspectRatio="none" viewBox="0 0 1440 560"><g mask="url(&quot;#SvgjsMask1008&quot;)" fill="none"><rect width="1440" height="560" x="0" y="0" fill="rgba(252, 236, 187, 1)"></rect><path d="M1488 560L0 560 L0 377.23Q33.72 338.95, 72 372.67Q141.87 322.54, 192 392.41Q225.69 306.11, 312 339.8Q355.66 263.46, 432 307.12Q455.11 258.23, 504 281.33Q592.75 250.07, 624 338.82Q690.41 285.23, 744 351.64Q760.96 296.6, 816 313.55Q839.66 265.22, 888 288.88Q958.14 287.02, 960 357.16Q972.17 297.33, 1032 309.5Q1080.72 238.22, 1152 286.94Q1193.24 256.19, 1224 297.43Q1320.87 274.3, 1344 371.16Q1356.86 312.02, 1416 324.88Q1446.25 283.13, 1488 313.38z" fill="rgba(255, 243, 207, 1)"></path><path d="M1488 560L0 560 L0 389.16Q85.44 354.6, 120 440.04Q175.95 424, 192 479.95Q246.82 414.77, 312 469.59Q328.42 366, 432 382.42Q475.14 353.56, 504 396.7Q610.36 383.06, 624 489.42Q626.22 371.63, 744 373.85Q815.69 373.55, 816 445.24Q834.16 391.4, 888 409.56Q915.56 365.12, 960 392.68Q1019.95 380.63, 1032 440.58Q1062.55 351.13, 1152 381.68Q1225.86 335.53, 1272 409.39Q1317.33 382.72, 1344 428.04Q1396.36 408.39, 1416 460.75Q1424.52 397.27, 1488 405.79z" fill="rgba(255, 251, 238, 1)"></path><path d="M1512 560L0 560 L0 486.99Q61.83 428.82, 120 490.65Q216.04 466.69, 240 562.73Q257.08 507.81, 312 524.89Q329.27 470.16, 384 487.43Q426.46 457.89, 456 500.36Q552.22 476.58, 576 572.8Q627.7 504.5, 696 556.2Q706.37 494.57, 768 504.94Q820.39 437.33, 888 489.72Q985.18 466.9, 1008 564.08Q1022.59 458.67, 1128 473.27Q1195.32 420.58, 1248 487.9Q1320.4 440.31, 1368 512.71Q1438.51 511.22, 1440 581.72Q1463.2 532.92, 1512 556.13z" fill="rgba(255, 254, 250, 1)"></path></g><defs><mask id="SvgjsMask1008"><rect width="1440" height="560" fill="#ffffff"></rect></mask></defs></svg>