<?xml version="1.0" encoding="utf-8"?>
<svg xmlns="http://www.w3.org/2000/svg" id="layer" style="enable-background:new 0 0 652 652;" version="1.1" viewBox="20 274.95 600.01 92.25" x="0px" y="0px">
<style type="text/css">
	.st0{fill:#380000;}
	.st1{fill:#FF6D00;}
</style>
<path class="st0" d="M20,321c0-30.7,22-46,42.6-46c15.9,0,26.1,8.7,28.3,13.6h0.5v-11.9h22.8v88.7H91.5v-11.9h-0.5  c-2.2,4.9-12.4,13.6-28.3,13.6C42,367,20,351.7,20,321z M92,321c0.8-13.3-9.3-24.7-22.6-25.5c-0.7,0-1.4-0.1-2.2,0  c-13.4-0.3-24.4,10.3-24.8,23.6c0,0.6,0,1.3,0,1.9c-0.8,13.3,9.4,24.8,22.8,25.5c0.6,0,1.3,0,1.9,0c13.3,0.4,24.4-10.1,24.8-23.4  C92,322.4,92,321.7,92,321z M123.3,342.1l18.2-4.9c1.5,6.9,7.6,11.8,14.7,11.8c5.8,0,11.4-2.9,11.4-9.2c0-4.3-2.7-7.3-9.7-10  l-10.9-4.1c-14.7-5.3-20.8-14.7-20.8-25.4c-0.2-15.8,13.8-25.3,30.4-25.3c16,0,27.8,9,30.7,22.7l-17.8,4.6  c-1.2-5.5-6.1-9.5-11.8-9.4c-6,0-9.5,3.3-9.5,7.7c0,3.8,2.2,7,9.2,9.4l10,3.8c10.9,3.9,22.8,10.4,22.8,26.1  c0,17.7-15.2,27.3-33.7,27.3C138.9,367,125.9,358.5,123.3,342.1z M199.7,276.7h22.9v88.7h-22.9V276.7z M232.3,321  c0-30.7,22-46,42.6-46c15.9,0,26.1,8.7,28.4,13.6h0.5v-11.9h22.8v88.7h-22.9v-11.9h-0.4c-2.2,4.9-12.4,13.6-28.3,13.6  C254.3,367,232.3,351.7,232.3,321z M304.3,321c0-13.7-11.1-24.7-24.7-24.8c-13.7,0-24.7,11.1-24.8,24.7c0,0,0,0,0,0  c0,13.7,11.1,24.7,24.7,24.8C293.2,345.8,304.3,334.7,304.3,321C304.3,321,304.3,321,304.3,321z"/>
<path class="st1" d="M382.4,275c25.4,0,46,20.6,46,46s-20.6,46-46,46s-46-20.6-46-46S356.9,275,382.4,275z M521.7,313.2v52.2h-22.8  v-48.4c0-13-7-21.5-18.9-21.5c-11.9,0-18.9,8.5-18.9,21.5v48.4h-22.9v-88.7H461v12.1c5.9-9.1,16.2-14.4,27.1-13.8  C506.3,275,521.7,286.2,521.7,313.2z M619.4,329.9H553c3.3,12.1,13.8,18.4,27.1,18.4c8.3,0.3,16.5-2.6,22.8-8l10.3,11.1  c-8.9,10.4-22.1,16.1-35.8,15.7c-24.4,0-46.2-16.7-46.2-46c0-29.4,22.2-46,44.9-46C598.9,275,624.3,290.8,619.4,329.9z M552.7,313.2  h46.4c-1.4-12.7-12-18.9-22.7-18.9C565,293.9,554.9,301.9,552.7,313.2L552.7,313.2z"/>
</svg>